<?xml version="1.0" standalone="no"?><svg xmlns="http://www.w3.org/2000/svg" viewBox="0 0 1440 320"><path fill="#f3f4f5" fill-opacity="1" d="M0,256L18.5,213.3C36.9,171,74,85,111,74.7C147.7,64,185,128,222,165.3C258.5,203,295,213,332,213.3C369.2,213,406,203,443,170.7C480,139,517,85,554,69.3C590.8,53,628,75,665,122.7C701.5,171,738,245,775,256C812.3,267,849,213,886,170.7C923.1,128,960,96,997,80C1033.8,64,1071,64,1108,80C1144.6,96,1182,128,1218,144C1255.4,160,1292,160,1329,154.7C1366.2,149,1403,139,1422,133.3L1440,128L1440,320L1421.5,320C1403.1,320,1366,320,1329,320C1292.3,320,1255,320,1218,320C1181.5,320,1145,320,1108,320C1070.8,320,1034,320,997,320C960,320,923,320,886,320C849.2,320,812,320,775,320C738.5,320,702,320,665,320C627.7,320,591,320,554,320C516.9,320,480,320,443,320C406.2,320,369,320,332,320C295.4,320,258,320,222,320C184.6,320,148,320,111,320C73.8,320,37,320,18,320L0,320Z"></path></svg>